<mxfile host="app.diagrams.net" modified="2022-11-02T00:24:05.510Z" agent="5.0 (Macintosh; Intel Mac OS X 10_15_7) AppleWebKit/537.36 (KHTML, like Gecko) Chrome/106.0.0.0 Safari/537.36" etag="hU9jEkL_sExOAtclGtW9" version="20.4.0" type="github">
  <diagram id="4i4ENBiobVN-bLH9ApV7" name="Page-1">
    <mxGraphModel dx="728" dy="521" grid="1" gridSize="10" guides="1" tooltips="1" connect="1" arrows="1" fold="1" page="1" pageScale="1" pageWidth="850" pageHeight="1100" math="0" shadow="0">
      <root>
        <mxCell id="0" />
        <mxCell id="1" parent="0" />
        <mxCell id="xEOKrewcvFzrr2aANLQc-1" value="&lt;font style=&quot;font-size: 16px;&quot;&gt;句型&lt;/font&gt;" style="ellipse;whiteSpace=wrap;html=1;fillColor=#dae8fc;strokeColor=#6c8ebf;" vertex="1" parent="1">
          <mxGeometry x="150" y="130" width="120" height="80" as="geometry" />
        </mxCell>
        <mxCell id="xEOKrewcvFzrr2aANLQc-2" value="&lt;font style=&quot;font-size: 16px;&quot;&gt;成分&lt;/font&gt;" style="ellipse;whiteSpace=wrap;html=1;fillColor=#dae8fc;strokeColor=#6c8ebf;" vertex="1" parent="1">
          <mxGeometry x="290" y="130" width="120" height="80" as="geometry" />
        </mxCell>
        <mxCell id="xEOKrewcvFzrr2aANLQc-3" value="&lt;font style=&quot;font-size: 16px;&quot;&gt;词性&lt;/font&gt;" style="ellipse;whiteSpace=wrap;html=1;fillColor=#dae8fc;strokeColor=#6c8ebf;" vertex="1" parent="1">
          <mxGeometry x="430" y="130" width="120" height="80" as="geometry" />
        </mxCell>
      </root>
    </mxGraphModel>
  </diagram>
</mxfile>
